PathFileType	3	(X/Y/Z)	walking_1__view1_aligned.trc
DataRate	CameraRate	NumFrames	NumMarkers	Units	OrigDataRate	OrigDataStartFrame	OrigNumFrames
100.0	100.0	7	19	mm	100.0	1527	6105
Frame#	Time	pelvis			neck			head			hip_left			hip_right			knee_left			knee_right			ankle_left			ankle_right			heel_left			heel_right			toe_left			toe_right			shoulder_left			shoulder_right			elbow_left			elbow_right			wrist_left			wrist_right			
		X1	Y1	Z1	X2	Y2	Z2	X3	Y3	Z3	X4	Y4	Z4	X5	Y5	Z5	X6	Y6	Z6	X7	Y7	Z7	X8	Y8	Z8	X9	Y9	Z9	X10	Y10	Z10	X11	Y11	Z11	X12	Y12	Z12	X13	Y13	Z13	X14	Y14	Z14	X15	Y15	Z15	X16	Y16	Z16	X17	Y17	Z17	X18	Y18	Z18	X19	Y19	Z19	
1527	15.26000	58.822700	936.044998	260.545676	-1.356668	1476.231079	375.161698	1.125658	1535.148917	538.150361	137.783190	939.833375	268.627120	-20.137771	932.256621	252.464255	131.900284	539.113958	470.897357	-81.640511	491.067654	280.732433	139.511243	127.196248	484.455757	-79.660924	160.877955	42.687063	142.072542	74.258448	456.722328	-71.969082	136.951166	-6.968228	112.772724	94.537564	678.389743	-97.702122	31.539326	159.090133	184.437436	1461.666821	321.190090	-178.164622	1405.403559	335.555817	260.314208	1187.041122	220.863807	-222.840587	1111.051690	315.601081	320.110165	930.303124	251.676138	-203.782021	914.733359	493.301436
1528	15.27000	60.258557	935.425054	260.943787	0.310695	1476.232156	375.034053	2.512817	1535.374646	537.904908	139.167160	939.400991	269.150151	-18.650026	931.449118	252.737446	131.830859	537.866263	468.940300	-80.572608	491.099006	283.073421	138.626209	123.208449	487.893350	-78.191154	165.273207	37.700956	141.123500	69.426412	460.618782	-70.432137	142.619534	-12.573176	112.055932	93.086546	684.308982	-95.510452	32.684450	150.638733	186.237542	1461.282185	321.484568	-176.638878	1405.499376	335.205634	261.761928	1186.182928	221.750319	-221.386945	1111.064864	315.351480	321.020819	929.320495	252.423016	-202.388455	915.719205	495.274609
1529	15.28000	61.694415	934.805111	261.341898	1.978058	1476.233233	374.906409	3.899976	1535.600375	537.659455	140.551131	938.968607	269.673181	-17.162281	930.641615	253.010638	131.761435	536.618568	466.983243	-79.504706	491.130359	285.414409	137.741175	119.220650	491.330943	-76.721384	169.668458	32.714849	140.174458	64.594376	464.515236	-68.895192	148.287902	-18.178123	111.339141	91.635528	690.228220	-93.318782	33.829574	142.187334	188.037649	1460.897549	321.779045	-175.113134	1405.595193	334.855451	263.209649	1185.324733	222.636830	-219.933303	1111.078037	315.101879	321.931472	928.337865	253.169894	-200.994889	916.705051	497.247782
1530	15.29000	63.130273	934.185168	261.740009	3.645422	1476.234309	374.778764	5.287135	1535.826104	537.414001	141.935101	938.536223	270.196212	-15.674536	929.834113	253.283829	131.692011	535.370874	465.026187	-78.436804	491.161712	287.755397	136.856141	115.232851	494.768536	-75.251613	174.063710	27.728742	139.225417	59.762340	468.411690	-67.358246	153.956269	-23.783071	110.622350	90.184509	696.147459	-91.127111	34.974698	133.735934	189.837756	1460.512913	322.073523	-173.587390	1405.691010	334.505268	264.657369	1184.466538	223.523342	-218.479661	1111.091210	314.852278	322.842126	927.355235	253.916771	-199.601323	917.690898	499.220955
1531	15.30000	66.276632	934.238411	260.124669	6.839509	1476.648437	373.166926	7.842541	1536.019396	535.726914	144.972908	938.671899	268.556863	-12.419587	929.804929	251.692468	133.254195	534.142373	459.951133	-75.806229	492.866996	291.655773	136.315754	113.884697	490.235560	-73.190485	177.761759	28.371991	138.402725	58.366357	463.979037	-65.472153	158.307446	-23.490683	110.325607	89.198372	691.643885	-88.233939	36.791680	132.717036	193.308515	1460.584608	321.457216	-170.278177	1406.219457	332.097683	268.318443	1184.052918	224.048267	-215.026375	1111.520888	311.559981	325.053244	926.845466	255.426172	-197.420167	917.600866	495.409077
1532	15.31000	69.422992	934.291654	258.509330	10.033597	1477.062565	371.555088	10.397946	1536.212689	534.039828	148.010715	938.807575	266.917515	-9.164638	929.775745	250.101107	134.816380	532.913872	454.876080	-73.175655	494.572281	295.556149	135.775367	112.536542	485.702583	-71.129357	181.459809	29.015240	137.580033	56.970374	459.546384	-63.586060	162.658623	-23.198295	110.028864	88.212235	687.140311	-85.340767	38.608662	131.698139	196.779275	1460.656304	320.840910	-166.968964	1406.747905	329.690097	271.979516	1183.639298	224.573192	-211.573090	1111.950566	308.267684	327.264363	926.335696	256.935573	-195.239010	917.510835	491.597199
1533	15.32000	72.569352	934.344897	256.893991	13.227685	1477.476693	369.943250	12.953351	1536.405982	532.352741	151.048522	938.943251	265.278167	-5.909689	929.746561	248.509746	136.378564	531.685371	449.801026	-70.545081	496.277566	299.456526	135.234980	111.188388	481.169607	-69.068228	185.157859	29.658488	136.757342	55.574390	455.113731	-61.699967	167.009799	-22.905907	109.732121	87.226098	682.636736	-82.447594	40.425644	130.679241	200.250034	1460.727999	320.224603	-163.659752	1407.276352	327.282512	275.640590	1183.225678	225.098117	-208.119805	1112.380244	304.975387	329.475481	925.825927	258.444973	-193.057854	917.420804	487.785322
